<svg xmlns="http://www.w3.org/2000/svg" fill="none" viewBox="0 0 64 64"><path fill="#01A88D" d="M0 0h64v64H0z"/><path fill="#fff" d="M31 35h2v15a1 1 0 0 1-.485.857l-5 3a1 1 0 0 1-.994.02l-11-6A1 1 0 0 1 15 47v-6.434l-4.515-2.709A1 1 0 0 1 10 37V27a1 1 0 0 1 .553-.895L16 23.382V16a1 1 0 0 1 .515-.874l9-5c.288-.16.638-.168.932-.02l6 3A1 1 0 0 1 33 14v15h-2V14.618l-4.976-2.488L23 13.81V21h-2v-6.078l-3 1.666v6.846l4 2.4 4-2.4V19h2v5a1 1 0 0 1-.485.857L23 27.567v2.814l3.447 1.724-.894 1.79L22 32.117l-3.553 1.776-.894-1.789L21 30.382v-2.816l-4.044-2.426L12 27.618v2.764l4.553-2.277.894 1.79L12 32.617v3.816l4 2.4 4.484-2.692 1.03 1.715L17 40.567v5.84l3.5 1.908 4.962-3.159 1.074 1.688-4.03 2.565 4.47 2.44L31 49.433zm-2 7v-3.5a1.002 1.002 0 0 0-1.541-.841l-7.001 4.5 1.082 1.682 5.46-3.51V42zm25-10c0 2.206-1.794 4-4 4-1.859 0-3.41-1.28-3.858-3H29v-2h17.142c.447-1.72 2-3 3.858-3 2.206 0 4 1.794 4 4m-2 0c0-1.103-.898-2-2-2s-2 .897-2 2 .898 2 2 2 2-.897 2-2m-5 13v6a1 1 0 0 1-1 1h-6a1 1 0 0 1-1-1v-6a1 1 0 0 1 1-1h2v-5h-7v-2h8a1 1 0 0 1 1 1v6h2a1 1 0 0 1 1 1m-2 1h-4v4h4zm-1-19h-9v-2h8v-5h-2.5a1 1 0 0 1-.864-1.504l3.5-6c.36-.614 1.369-.614 1.728 0l3.5 6A1.001 1.001 0 0 1 47.5 20H45v6a1 1 0 0 1-1 1m1.759-9L44 14.985 42.241 18z"/></svg>