<svg xmlns="http://www.w3.org/2000/svg" width="64" height="64" viewBox="0 0 64 64"><title>Icon-Architecture/48/Arch_Amazon-Elastic-Transcoder_48</title><g fill="none" fill-rule="evenodd"><path fill="#ED7100" d="M0 0h64v64H0z"/><path fill="#FFF" d="M12.78 26.998a9 9 0 0 1-.01-.437c0-3.177 1.676-5.612 4.529-6.658a10 10 0 0 1-.006-.34c0-3.625 2.416-7.39 5.62-8.753 3.746-1.597 7.715-.803 10.615 2.123a10.6 10.6 0 0 1 1.995 2.843 4.3 4.3 0 0 1 3.652-.584c1.861.548 3.126 2.207 3.47 4.503a8.5 8.5 0 0 1 2.606 1.182 9.2 9.2 0 0 0-3.203.729 7 7 0 0 0-.5-.106 1 1 0 0 1-.82-1.083c-.141-1.725-.926-2.958-2.111-3.306-.969-.285-2.01.098-2.656.975a.99.99 0 0 1-1.737-.261c-.49-1.396-1.198-2.567-2.104-3.48-1.106-1.117-4.143-3.52-8.433-1.694-2.47 1.052-4.406 4.088-4.406 6.912q.001.467.052.92.01.069.01.14a1 1 0 0 1-.793.98c-1.438.38-3.792 1.53-3.792 4.958q0 .174.008.342c.04.818.294 1.6.72 2.301h-2.217a6.9 6.9 0 0 1-.49-2.206m32.019 20.588v-1.763l1.753.89zm4.423-1.757-4.97-2.522a.99.99 0 0 0-.968.04 1 1 0 0 0-.473.852v4.999a1 1 0 0 0 .994 1c.15 0 .302-.036.441-.105l4.97-2.477a1 1 0 0 0 .553-.892 1 1 0 0 0-.547-.895M45.694 52c-2.932 0-5.317-2.399-5.317-5.347s2.385-5.348 5.317-5.348 5.318 2.4 5.318 5.348-2.385 5.347-5.318 5.347m-32.706-6.802h13.917V33.203H12.988zm32.706-20.345c2.933 0 5.318 2.398 5.318 5.347 0 2.948-2.385 5.347-5.318 5.347s-5.317-2.4-5.317-5.347c0-2.95 2.385-5.347 5.317-5.347m0 14.453c-3.55 0-6.513 2.561-7.168 5.94l-9.633-4.418v-3.512l10.07-4.263c1.109 2.638 3.708 4.493 6.731 4.493 4.029 0 7.306-3.295 7.306-7.346 0-4.05-3.277-7.347-7.306-7.347-4.028 0-7.305 3.296-7.305 7.347 0 .306.024.605.06.9l-9.556 4.046v-2.944c0-.553-.444-1-.994-1H11.994a.996.996 0 0 0-.994 1V46.2c0 .551.444 1 .994 1H27.9c.55 0 .994-.449.994-1v-3.172l9.534 4.372C38.8 51.101 41.917 54 45.694 54 49.723 54 53 50.705 53 46.654s-3.277-7.347-7.306-7.347M44.8 29.284l1.788.917-1.788.917zm-1.514 4.318a.99.99 0 0 0 .971.039l4.97-2.55a1 1 0 0 0 0-1.78l-4.97-2.549a.99.99 0 0 0-.971.038 1 1 0 0 0-.474.852v5.097c0 .349.18.67.474.853M18.964 37.83l2.723 1.37-2.723 1.37zm-1.517 5.208a.98.98 0 0 0 .967.044l5.942-2.987a1 1 0 0 0 0-1.789l-5.942-2.987a.99.99 0 0 0-.967.044 1 1 0 0 0-.472.85v5.975c0 .347.178.668.472.85"/></g></svg>