<svg xmlns="http://www.w3.org/2000/svg" viewBox="0 0 64 64"><title>Icon-Architecture/48/Arch_Amazon-WorkSpaces-Family_48</title><g fill="none" fill-rule="evenodd"><path fill="#01A88D" d="M0 0h64v64H0z"/><path fill="#FFF" d="M31 54h2v-5h-2zm0-39h2v-5h-2zm17 18h6v-2h-6zm-38 0h6v-2h-6zm2-4h-2V11a1 1 0 0 1 1-1h18v2H12zm42-18v18h-2V12H35v-2h18a1 1 0 0 1 1 1m-2 24h2v18a1 1 0 0 1-1 1H35.083v-2H52zM12 52h16.917v2H11a1 1 0 0 1-1-1V35h2zm21-7.738V32.574l10-5.833v11.686zM21 26.741l10 5.833v11.688l-10-5.835zm11.001-7.586 10.016 5.844L32 30.842l-10.004-5.835zm-.506-2.022-11.917 6.97a1.02 1.02 0 0 0-.546.641 1 1 0 0 0-.032.383v13.875a1 1 0 0 0 .496.863l12 7.002a1 1 0 0 0 1.008 0l12-7.002a1 1 0 0 0 .496-.863V24.998a1 1 0 0 0-.496-.863l-12-7.002a1 1 0 0 0-1.009 0"/></g></svg>