<svg width="24" height="24" viewBox="0 0 24 24" fill="none" xmlns="http://www.w3.org/2000/svg">
<g clip-path="url(#clip0_6377_20974)">
<rect width="24" height="24" fill="#7638FA"/>
<path d="M17.7527 7.35055L12.8452 4.46685C12.5571 4.29809 12.1788 4.21289 11.7989 4.21289C11.4191 4.21289 11.0408 4.29809 10.7527 4.46685L5.84517 7.35055C5.27055 7.68807 4.79895 8.51877 4.79895 9.19382V14.9612C4.79895 15.6379 5.26894 16.467 5.84517 16.8045L10.7527 19.6882C11.0408 19.8569 11.4191 19.9421 11.7989 19.9421C12.1788 19.9421 12.5571 19.8569 12.8452 19.6882L17.7527 16.8045C18.3273 16.467 18.7989 15.6363 18.7989 14.9612V9.19382C18.7989 8.51714 18.329 7.68807 17.7527 7.35055ZM12.2013 18.5544C12.1563 18.5806 12.013 18.633 11.7989 18.633C11.5849 18.633 11.4432 18.5822 11.3966 18.5544L6.48899 15.6707C6.31194 15.5674 6.0866 15.1693 6.0866 14.9629V9.19546C6.0866 8.98738 6.31194 8.59087 6.48899 8.48764L11.3966 5.60395C11.4416 5.57773 11.5849 5.5253 11.7989 5.5253C12.013 5.5253 12.1547 5.57609 12.2013 5.60395L17.1089 8.48764C17.286 8.59087 17.5113 8.98901 17.5113 9.19546V14.6794L13.0882 12.0808V11.5417C13.0882 11.4074 13.0174 11.2829 12.9031 11.214L11.9857 10.675C11.9277 10.6406 11.8649 10.6242 11.8006 10.6242C11.7362 10.6242 11.6718 10.6406 11.6155 10.675L10.698 11.214C10.5837 11.2812 10.5129 11.4057 10.5129 11.5417V12.6198C10.5129 12.7542 10.5837 12.8787 10.698 12.9475L11.6155 13.4866C11.6734 13.521 11.7362 13.5374 11.8006 13.5374C11.8649 13.5374 11.9293 13.521 11.9857 13.4866L12.4444 13.2179L16.8675 15.8165L12.203 18.5576L12.2013 18.5544Z" fill="white"/>
</g>
<defs>
<clipPath id="clip0_6377_20974">
<rect width="24" height="24" fill="white"/>
</clipPath>
</defs>
<script xmlns=""/></svg>