<svg xmlns="http://www.w3.org/2000/svg" width="64" height="64" fill="none" viewBox="0 0 64 64"><path fill="#ED7100" d="M0 0h64v64H0z"/><path fill="#fff" fill-rule="evenodd" d="m25.317 34.02 1.522.868-.99 1.737-2.035-1.16a38 38 0 0 1-3.005 2.478L32 44.868l11.19-6.925a38 38 0 0 1-3.01-2.482l-2.046 1.164-.988-1.738 1.532-.87A30 30 0 0 1 36.25 31.2l-3.75 2.165a1 1 0 0 1-1 0l-3.75-2.165a30 30 0 0 1-2.433 2.82m3.572-4.47L32 31.344l3.11-1.796c-1.382-2.154-2.431-4.443-3.11-6.893-.68 2.45-1.729 4.74-3.111 6.893m-11.558.707C20.933 27.013 23 22.91 23 19h2c0 2.894.641 5.48 1.855 7.481l-1.711 1.038a13.8 13.8 0 0 1-1.318-2.935c-.906 2.2-2.307 4.322-4.166 6.211l3.861 2.201C28.535 27.998 31 22.06 31 14.981a1 1 0 1 1 2 0c0 7.077 2.463 13.014 7.475 18.012l3.863-2.199c-1.858-1.889-3.258-4.01-4.165-6.21a13.8 13.8 0 0 1-1.318 2.935l-1.711-1.038c1.214-2 1.856-4.587 1.856-7.48h2c0 3.91 2.066 8.012 5.669 11.256a1.002 1.002 0 0 1-.175 1.612l-4.487 2.553a38 38 0 0 0 3.556 2.752 1 1 0 0 1-.037 1.677l-13 8.044a1 1 0 0 1-1.053 0l-13-8.044a1.002 1.002 0 0 1-.037-1.677 37 37 0 0 0 3.552-2.75l-4.483-2.555a1 1 0 0 1-.174-1.612m26.465-13.689-3.897-2.25-1 1.732 3.897 2.25zM25.1 16.05l-1-1.732-3.897 2.25 1 1.732zm26.54 5.25-4.313-2.693-1.059 1.697 2.896 1.807-2.661 1.527.994 1.735L50 23.88v16.507l-2.553-1.28-.895 1.79 2.34 1.168L32 51.845l-16.893-9.78 2.34-1.17-.895-1.79L14 40.386V23.88l2.503 1.494.994-1.735-2.661-1.527 2.895-1.807-1.059-1.697-4.313 2.693c-.295.183-.361.507-.359.853v19.852a1 1 0 0 0 .499.86l19 11a1 1 0 0 0 1.002 0l19-11a1 1 0 0 0 .499-.86V22.153c.002-.346-.065-.67-.36-.853M32 40.021c.172 0 .345-.044.5-.133l2.789-1.61-1-1.733L32 37.867l-2.289-1.322-1 1.732 2.789 1.611a1 1 0 0 0 .5.133m-3.467-25.775-1.029-1.715 3.981-2.388a1 1 0 0 1 1.029 0l3.982 2.388-1.03 1.715L32 12.166z" clip-rule="evenodd"/></svg>