<svg xmlns="http://www.w3.org/2000/svg" width="64" height="64" viewBox="0 0 64 64"><title>Icon-Architecture/48/Arch_AWS-RoboMaker_48</title><g fill="none" fill-rule="evenodd"><path fill="#DD344C" d="M0 0h64v64H0z"/><path fill="#FFF" d="M12.5 32a.5.5 0 1 1-.002 1.002A.5.5 0 0 1 12.5 32m0 3c1.379 0 2.5-1.122 2.5-2.5S13.879 30 12.5 30a2.503 2.503 0 0 0-2.5 2.5c0 1.378 1.121 2.5 2.5 2.5M18 23a1.001 1.001 0 0 1 0 2 1.001 1.001 0 0 1 0-2m-3 1c0 1.654 1.346 3 3 3s3-1.346 3-3-1.346-3-3-3-3 1.346-3 3m-1-8a1.001 1.001 0 0 1 0 2 1.001 1.001 0 0 1 0-2m0 4c1.654 0 3-1.346 3-3s-1.346-3-3-3-3 1.346-3 3 1.346 3 3 3m9.707-4.293-1.414-1.414C24.369 12.218 28.017 10 32.03 10c3.322 0 7.03 1.645 9.677 4.293l-1.414 1.414C38.501 13.915 35.39 12 32.03 12c-2.803 0-6.07 1.455-8.323 3.707M32.03 14c3.384 0 5.609 2.224 6.677 3.293l-1.414 1.414C36.347 17.761 34.586 16 32.03 16c-2.616 0-4.377 1.761-5.323 2.707l-1.414-1.414C26.361 16.224 28.586 14 32.03 14M52 49.159l-1 .174v-7.109l1 .433zM49 52h-1V40h1v12m-34-.596V40h1v12h-1zm-3-3.122v-5.544l1-.308v6.189zM32 25.79c3.942 0 7.702 1.506 10.313 4.132C44.71 32.331 46.019 35.553 46 39v13H18l-.001-12.969C18.235 31.482 24.254 25.79 32 25.79M30 22c0-1.439.561-2 2-2s2 .561 2 2v1.917a18 18 0 0 0-2-.127c-.681 0-1.345.051-2 .126zm24 19.343-3-1.299V38h-3.043c-.218-3.596-1.687-6.937-4.226-9.488-2.074-2.086-4.778-3.535-7.731-4.236V22c0-2.542-1.458-4-4-4s-4 1.458-4 4v2.273C21.476 25.835 16.705 31.16 16.079 38H13v2.337l-3 .925v8.456l3 1.012V54h38v-2.638l3-.521zM26.5 37c.827 0 1.5.673 1.5 1.5s-.673 1.5-1.5 1.5-1.5-.673-1.5-1.5.673-1.5 1.5-1.5m0 5c1.93 0 3.5-1.57 3.5-3.5S28.43 35 26.5 35 23 36.57 23 38.5s1.57 3.5 3.5 3.5m11-5c.827 0 1.5.673 1.5 1.5s-.673 1.5-1.5 1.5-1.5-.673-1.5-1.5.673-1.5 1.5-1.5m0 5c1.93 0 3.5-1.57 3.5-3.5S39.43 35 37.5 35 34 36.57 34 38.5s1.57 3.5 3.5 3.5"/></g></svg>