<svg xmlns="http://www.w3.org/2000/svg" width="64" height="64" viewBox="0 0 64 64"><title>Icon-Architecture/48/Arch_AWS-IoT-Button_48</title><g fill="none" fill-rule="evenodd"><path fill="#7AA116" d="M0 0h64v64H0z"/><path fill="#FFF" d="M33 34.5a2 2 0 1 0-.001-4.001A2 2 0 0 0 33 34.5m6-2c0 1.93 1.57 3.5 3.5 3.5s3.5-1.57 3.5-3.5-1.57-3.5-3.5-3.5-3.5 1.57-3.5 3.5m-2 0c0-3.033 2.468-5.5 5.5-5.5s5.5 2.467 5.5 5.5-2.468 5.5-5.5 5.5a5.506 5.506 0 0 1-5.5-5.5m-24-.001c0 4.344 2.944 7.498 7 7.498q.04 0 .077.003h23.846l.077-.003c4.056 0 7-3.154 7-7.498s-2.944-7.496-7-7.496L43.923 25H20.077l-.077.003c-4.056 0-7 3.152-7 7.496m-2 0c0-5.385 3.828-9.453 8.919-9.496Q19.959 23 20 23h24q.041 0 .081.003c5.091.043 8.919 4.111 8.919 9.496s-3.828 9.455-8.919 9.498L44 42H20q-.041 0-.081-.003C14.828 41.954 11 37.885 11 32.499M14 14h7v-2h-8a1 1 0 0 0-1 1v8h2zm36 7h2v-8a1 1 0 0 0-1-1h-8v2h7zM14 43h-2v8a1 1 0 0 0 1 1h8v-2h-7zm36 0h2v8a1 1 0 0 1-1 1h-8v-2h7z"/></g></svg>