<svg xmlns="http://www.w3.org/2000/svg" width="64" height="64" viewBox="0 0 64 64"><title>Icon-Architecture/48/Arch_AWS-DeepLens_48</title><g fill="none" fill-rule="evenodd"><path fill="#01A88D" d="M0 0h64v64H0z"/><path fill="#FFF" d="M36.999 54h1.999V44h-2zm-11 0h1.998v-6h-1.999zm0-9h1.998v-3h-1.999zm7.995-11v-3h-2.998v3h-2v-3H24c-.349 0-1.273 0-1.74-.807C22 29.745 22 29.257 22 28.64V12.51c0-.611 0-1.124.23-1.585.309-.614.903-.925 1.769-.925h7.996v2h-7.99c-.006.143-.006.33-.006.493v16.13c0 .125 0 .261.003.377h16.986c.003-.114.003-.244.003-.36V12.51c0-.174 0-.365-.007-.51h-2.992v-2h2.999c.865 0 1.46.311 1.767.925.232.461.232.974.232 1.568v16.13c0 .634 0 1.122-.26 1.57-.467.807-1.391.807-1.739.807h-4.998v3zm-.457 18a1 1 0 1 1-2.002-.002 1 1 0 0 1 2.002.002m0-4a1 1 0 1 1-2.002-.002 1 1 0 0 1 2.002.002m.457-36h2v-2h-2zm1 27h1.999v-2h-2zm-3.457-18.464a.999.999 0 1 1 1.998-.002.999.999 0 0 1-1.998.002m2 23.464a1 1 0 1 1-2.002-.002 1 1 0 0 1 2.002.002M41 54l-.009-15h-2v-2h1.999c0-2.271-.829-2.446-2-2.446h-.999v-2h1c2.69 0 3.998 1.454 3.998 4.446L43 53.999zm-17-15 .008 6.999L22.01 46 22 37c0-2.991 1.307-4.445 3.998-4.445h1v2h-1C24.828 34.555 24 34.73 24 37h8.996v2zm8.536-21.423a2.96 2.96 0 0 1 2.957 2.959 2.96 2.96 0 0 1-2.957 2.958 2.96 2.96 0 0 1-2.958-2.958 2.96 2.96 0 0 1 2.958-2.959m-4.957 2.959a4.96 4.96 0 0 0 4.957 4.958 4.963 4.963 0 0 0 4.956-4.958 4.964 4.964 0 0 0-4.956-4.959 4.963 4.963 0 0 0-4.957 4.959"/></g></svg>