<svg xmlns="http://www.w3.org/2000/svg" viewBox="0 0 64 64"><title>Icon-Architecture/48/Arch_AWS-DeepComposer_48</title><g fill="none" fill-rule="evenodd"><path fill="#01A88D" d="M0 0h64v64H0z"/><path fill="#FFF" d="M52 28.422c-3.927 3.331-9.219 4.283-14 2.601v2.078c1.562.485 3.16.747 4.755.747 3.263 0 6.48-1.001 9.245-2.916V50c0 1.103-.897 2-2 2H14c-1.103 0-2-.897-2-2V36.222l1.445-1.926A14.28 14.28 0 0 1 28 28.903v-2.049a16.28 16.28 0 0 0-16 6.053V14c0-1.103.897-2 2-2h36c1.103 0 2 .897 2 2zM50 10H14c-2.206 0-4 1.795-4 4v36c0 2.206 1.794 4 4 4h36c2.206 0 4-1.794 4-4V14c0-2.205-1.794-4-4-4M39.744 25.708c-.377.376-1.01.401-1.437-.024l-2.624-2.452a.998.998 0 0 0-1.683.73V40.5c0 3.033-2.468 5.5-5.5 5.5a5.506 5.506 0 0 1-5.5-5.5c0-3.033 2.468-5.5 5.5-5.5a5.5 5.5 0 0 1 2.114.423A1.002 1.002 0 0 0 32 34.5V18.906c0-.52.424-.944.944-.944h.009q.04.004.077.005c.184.006.449.06.677.288l6.038 6.038v.001c.19.188.293.439.293.706a1 1 0 0 1-.294.708m-4.623-8.867a2.98 2.98 0 0 0-1.908-.867 1 1 0 0 0-.157-.012h-.112A2.95 2.95 0 0 0 30 18.906v14.245A7.4 7.4 0 0 0 28.5 33c-4.136 0-7.5 3.364-7.5 7.5s3.364 7.5 7.5 7.5 7.5-3.364 7.5-7.5V26.265l.917.856c1.134 1.135 3.112 1.132 4.242.001A2.98 2.98 0 0 0 42.038 25c0-.801-.312-1.555-.879-2.121z"/></g></svg>