<svg xmlns="http://www.w3.org/2000/svg" width="64" height="64" viewBox="0 0 64 64"><title>Icon-Architecture/48/Arch_AWS-IoT-Analytics_48</title><g fill="none" fill-rule="evenodd"><path fill="#7AA116" d="M0 0h64v64H0z"/><path fill="#FFF" d="M48 35.019c-1.654 0-3-1.347-3-3.002a3.005 3.005 0 0 1 3-3.003c1.654 0 3 1.347 3 3.003a3.005 3.005 0 0 1-3 3.002m-6.732 11.123a16.44 16.44 0 0 1-11.704 4.856c-2.805 0-5.526-.706-7.952-2.043A5 5 0 0 0 22 47.028c0-.047-.013-.09-.014-.138l22.362-11.48a5 5 0 0 0 1.62 1.17 16.6 16.6 0 0 1-4.7 9.562M17 50.03c-1.654 0-3-1.347-3-3.003a3.005 3.005 0 0 1 3-3.002c1.654 0 3 1.347 3 3.002a3.005 3.005 0 0 1-3 3.003m.853-27.323a16.57 16.57 0 0 1 9.571-4.702 5 5 0 0 0 1.15 1.624L17.092 42.033a.4.4 0 0 0-.092-.009c-.686 0-1.339.14-1.934.39A16.46 16.46 0 0 1 13 34.42c0-4.42 1.724-8.58 4.853-11.712M32 13.002c1.654 0 3 1.347 3 3.002a3.005 3.005 0 0 1-3 3.002c-1.654 0-3-1.347-3-3.002a3.005 3.005 0 0 1 3-3.002m8.523 9.036L19.731 42.846a5 5 0 0 0-.632-.343l11.182-21.818a5 5 0 0 0 1.719.323c1.573 0 2.962-.746 3.879-1.886a16.6 16.6 0 0 1 4.644 2.916M47 14.002c1.654 0 3 1.347 3 3.003a3.005 3.005 0 0 1-3 3.002c-1.654 0-3-1.347-3-3.002a3.005 3.005 0 0 1 3-3.003m-4 18.015c0 .591.121 1.15.311 1.677L21.502 44.89a5 5 0 0 0-.347-.639l20.783-20.8a16.4 16.4 0 0 1 2.932 4.694c-1.131.92-1.87 2.304-1.87 3.872m5-5.004c-.472 0-.92.087-1.353.209a18.4 18.4 0 0 0-3.282-5.17l.902-.867a4.95 4.95 0 0 0 2.733.824c2.757 0 5-2.245 5-5.004A5.01 5.01 0 0 0 47 12c-2.757 0-5 2.245-5 5.004 0 1.026.313 1.98.844 2.774l-.893.857a18.6 18.6 0 0 0-5.156-3.294c.12-.428.205-.872.205-1.338A5.01 5.01 0 0 0 32 11c-2.757 0-5 2.245-5 5.004q.002.021.004.043a18.56 18.56 0 0 0-10.566 5.246A18.46 18.46 0 0 0 11 34.42c0 3.223.839 6.36 2.416 9.133A4.98 4.98 0 0 0 12 47.028a5.01 5.01 0 0 0 5 5.004c1.35 0 2.571-.543 3.472-1.416A18.4 18.4 0 0 0 29.564 53c4.952 0 9.61-1.934 13.118-5.443a18.63 18.63 0 0 0 5.243-10.545c.025.001.05.008.075.008 2.757 0 5-2.244 5-5.003a5.01 5.01 0 0 0-5-5.004"/></g></svg>