<svg xmlns="http://www.w3.org/2000/svg" viewBox="0 0 64 64"><title>Icon-Architecture/48/Arch_AWS-Private-5G_48</title><g fill="none" fill-rule="evenodd"><path fill="#8C4FFF" d="M0 0h64v64H0z"/><path fill="#FFF" d="m26.437 15.23-6.986-5.31-1.211 1.592 6.986 5.31zm18.438-3.738L43.665 9.9l-6.987 5.31 1.211 1.592zM33 48.019h3v-3h-3zm-5 0h3v-3h-3zm5-5h3v-3h-3zm-5 0h3v-3h-3zm23.978 6.052c-.328-.633-3.617-2.12-11.978-2.933v5.583c7.272-.57 11.454-1.832 11.978-2.65M38 37.019H26v14.836c1.838.102 3.834.164 6 .164s4.163-.062 6-.165zm-14-2h7v-4.48c-9.599.446-17.331 7.168-18.753 16.061 2.694-1.308 7.392-2.036 11.753-2.441zm0 11.151c-8.392.803-11.68 2.297-11.988 2.95.427.756 4.629 2.029 11.988 2.602zm7.891-24.651c1.379 0 2.5-1.122 2.5-2.5s-1.121-2.5-2.5-2.5a2.503 2.503 0 0 0-2.5 2.5c0 1.378 1.121 2.5 2.5 2.5M33 30.541v4.478h7v9.107c4.336.41 8.962 1.137 11.663 2.42C49.969 37.804 42.178 31.005 33 30.541m20.992 18.517c.001.016.008.032.008.049 0 4.774-19.748 4.912-22 4.912s-22-.138-22-4.912c0-.04.017-.075.019-.114L10 48.992c.3-11.169 9.444-19.962 21-20.453v-5.11a4.506 4.506 0 0 1-3.609-4.41c0-2.481 2.019-4.5 4.5-4.5 2.482 0 4.5 2.019 4.5 4.5 0 2.097-1.447 3.848-3.391 4.345v5.177c11.126.512 20.45 9.504 20.999 20.516zm-9.117-21.877-6.986-5.31-1.211 1.593 6.987 5.309zM39 21.019h11v-2H39zM18.24 27.2l1.211 1.593 6.986-5.31-1.211-1.592zM14 21.019h11v-2H14z"/></g></svg>