<svg xmlns="http://www.w3.org/2000/svg" viewBox="0 0 74 74"><title>Icon-Architecture-Category/48/Robotics_48</title><g fill="none" fill-rule="evenodd"><path fill="#DD344C" d="M5 5h64v64H5z"/><path stroke="#879196" stroke-width="2" d="M1 1h72v72H1z"/><path fill="#FFF" d="m28.707 20.606-1.416-1.413A14.2 14.2 0 0 1 37.393 15h.011c3.813 0 7.398 1.483 10.096 4.177l-1.414 1.415A12.2 12.2 0 0 0 37.404 17h-.01a12.2 12.2 0 0 0-8.687 3.606m16.108 1.466-1.414 1.414c-3.31-3.31-8.695-3.31-12.006 0l-1.414-1.414c4.09-4.09 10.745-4.09 14.834 0M57 54.232l-1 .757v-7.946l1 .776zm-4 2.734h1V43.999h-1zm-33 .001h1V44h-1zm-3-2.735v-6.413l1-.776v7.946zM37 30c7.981 0 14 6.018 14 14v13H23V44c0-7.982 6.019-14 14-14m-1-4a1 1 0 0 1 1-1h1a1 1 0 0 1 1 1v2.125A18 18 0 0 0 37 28c-.339 0-.668.028-1 .047zm20 18.51V43a1 1 0 0 0-1-1h-2.125C52.101 35.232 47.433 30.023 41 28.483V26c0-1.655-1.346-3-3-3h-1c-1.654 0-3 1.345-3 3v2.269C27.054 29.485 21.938 34.885 21.125 42H19a1 1 0 0 0-1 1v1.51l-2.613 2.03c-.244.19-.387.481-.387.79v7.4c0 .313.146.608.396.797L18 57.497v.469a1 1 0 0 0 1 1h36a1 1 0 0 0 1-1v-.469l2.603-1.97A1 1 0 0 0 59 54.73v-7.4c0-.309-.143-.6-.387-.79zM44 42c1.103 0 2 .897 2 2.006A2.003 2.003 0 0 1 44 46c-1.103 0-2-.897-2-2s.897-2 2-2m0 6a4.01 4.01 0 0 0 4-4c0-2.206-1.794-4-4-4s-4 1.794-4 4 1.794 4 4 4m-14.055-5.945c1.103 0 2 .897 2 2.006a2.005 2.005 0 0 1-2 1.994c-1.102 0-2-.897-2-2s.898-2 2-2m0 6a4.01 4.01 0 0 0 4-4c0-2.206-1.794-4-4-4s-4 1.794-4 4 1.794 4 4 4"/></g></svg>