<svg xmlns="http://www.w3.org/2000/svg" width="64" height="64" viewBox="0 0 64 64"><title>Icon-Architecture/48/Arch_NICE-EnginFrame_48</title><g fill="none" fill-rule="evenodd"><path fill="#ED7100" d="M0 0h64v64H0z"/><path fill="#FFF" d="M17.861 35.998C19.946 40.727 25.573 44 32 44c8.271 0 15-5.383 15-12 0-6.616-6.729-12-15-12-6.427 0-12.054 3.274-14.139 8.003Q17.931 28 18 28h18c2.206 0 4 1.795 4 4s-1.794 4-4 4H18zM32 46c-8.115 0-15.128-4.753-16.678-11.304a1 1 0 0 1 1.543-1.052c.337.233.728.356 1.135.356h18c1.102 0 2-.897 2-2s-.898-2-2-2H18c-.407 0-.798.123-1.135.357a1.002 1.002 0 0 1-1.543-1.052C16.872 22.754 23.885 18 32 18c9.374 0 17 6.281 17 14s-7.626 14-17 14m0-31c-11.029 0-20 7.626-20 17s8.971 17 20 17 20-7.626 20-17-8.972-17-20-17m0 36c-12.131 0-22-8.523-22-19s9.869-19 22-19 22 8.524 22 19-9.869 19-22 19"/></g></svg>